<?xml version="1.0" encoding="UTF-8" standalone="no"?>
<!-- Created with Inkscape (http://www.inkscape.org/) -->

<svg
   xmlns:dc="http://purl.org/dc/elements/1.1/"
   xmlns:cc="http://creativecommons.org/ns#"
   xmlns:rdf="http://www.w3.org/1999/02/22-rdf-syntax-ns#"
   xmlns:svg="http://www.w3.org/2000/svg"
   xmlns="http://www.w3.org/2000/svg"
   xmlns:xlink="http://www.w3.org/1999/xlink"
   xmlns:sodipodi="http://sodipodi.sourceforge.net/DTD/sodipodi-0.dtd"
   xmlns:inkscape="http://www.inkscape.org/namespaces/inkscape"
   version="1.0"
   width="70.064095"
   height="58.357391"
   id="svg2"
   inkscape:version="0.48.4 r9939"
   sodipodi:docname="slursdyns.svg">
  <metadata
     id="metadata3037">
    <rdf:RDF>
      <cc:Work
         rdf:about="">
        <dc:format>image/svg+xml</dc:format>
        <dc:type
           rdf:resource="http://purl.org/dc/dcmitype/StillImage" />
        <dc:title></dc:title>
      </cc:Work>
    </rdf:RDF>
  </metadata>
  <sodipodi:namedview
     pagecolor="#ffffff"
     bordercolor="#666666"
     borderopacity="1"
     objecttolerance="10"
     gridtolerance="10"
     guidetolerance="10"
     inkscape:pageopacity="0"
     inkscape:pageshadow="2"
     inkscape:window-width="1366"
     inkscape:window-height="744"
     id="namedview3035"
     showgrid="false"
     fit-margin-top="0"
     fit-margin-left="0"
     fit-margin-right="0"
     fit-margin-bottom="0"
     inkscape:zoom="3.8131919"
     inkscape:cx="48.43523"
     inkscape:cy="1.5110691"
     inkscape:window-x="0"
     inkscape:window-y="24"
     inkscape:window-maximized="1"
     inkscape:current-layer="svg2" />
  <defs
     id="defs4" />
  <g
     transform="matrix(0.35782304,0,0,0.35782304,-104.78938,-152.54554)"
     id="layer1"
     style="fill:#ffffff">
    <path
       d="m 389.33969,518.30794 10.28129,0 c 1.43032,-0.0363 2.62108,-0.53 3.57231,-1.4812 0.9511,-0.95113 1.44484,-2.1419 1.4812,-3.57231 -0.0364,-1.43034 -0.5301,-2.62111 -1.4812,-3.57232 -0.95123,-0.95112 -2.14199,-1.44485 -3.57231,-1.4812 l -7.31889,0 c 1.17983,-5.24587 2.78447,-10.08882 4.81391,-14.52886 2.02934,-4.43991 5.24587,-6.79967 9.6496,-7.07928 l 1.21982,0 c 0.99829,-0.0253 1.87685,0.0691 2.63566,0.28318 0.75869,0.21426 1.15803,0.70073 1.19804,1.45942 -0.27598,2.43606 -1.37962,4.05522 -3.31093,4.85747 -1.93143,0.80238 -3.03507,2.37797 -3.31092,4.72678 0.058,2.14925 0.81315,3.94993 2.26537,5.40203 1.45209,1.45222 3.25277,2.20734 5.40203,2.26537 3.04584,-0.14516 5.31846,-1.55376 6.81789,-4.22578 1.49928,-2.67192 2.24714,-5.73597 2.24359,-9.19217 -0.10899,-4.38183 -1.59019,-8.034 -4.44361,-10.95655 -2.85357,-2.92239 -6.42588,-4.4399 -10.71694,-4.55252 -8.09222,0.30141 -15.43288,3.53246 -22.022,9.69317 -6.58921,6.16086 -11.44668,13.44343 -14.57242,21.84774 l -9.23574,0 c -1.43039,0.0363 -2.62116,0.53008 -3.57231,1.4812 -0.95118,0.95121 -1.44491,2.14198 -1.4812,3.57232 0.0363,1.43041 0.53002,2.62118 1.4812,3.57231 0.95115,0.9512 2.14192,1.44493 3.57231,1.4812 l 6.44759,0 -11.5011,45.83016 c -0.91124,3.92445 -2.35614,7.44593 -4.3347,10.56446 -1.97857,3.11849 -4.77397,4.76669 -8.38622,4.9446 l -1.04556,0 c -1.08185,0.029 -2.01123,-0.0726 -2.78814,-0.30495 -0.7769,-0.23237 -1.18351,-0.76967 -1.21982,-1.6119 0.27592,-2.34888 1.37956,-3.92448 3.31093,-4.72678 1.93137,-0.80233 3.03501,-2.42149 3.31092,-4.85747 -0.0472,-2.14195 -0.78053,-3.91358 -2.20002,-5.31491 -1.41948,-1.40134 -3.24194,-2.12742 -5.46738,-2.17823 -2.96966,0.13432 -5.2205,1.52113 -6.75255,4.16043 -1.53201,2.63929 -2.30165,5.72513 -2.30893,9.25752 0.10893,4.37461 1.59013,7.99774 4.44361,10.86941 2.8535,2.87162 6.42581,4.36008 10.71694,4.4654 5.7484,-0.22915 11.17409,-2.7914 16.27709,-7.68677 5.10298,-4.89541 9.54766,-10.74922 13.33405,-17.56145 3.78635,-6.81224 6.57879,-13.20819 8.37736,-19.18787 l 8.19018,-26.66165 z"
       id="text2502"
       style="font-size:174.26139832000001206px;font-style:normal;font-variant:normal;font-weight:normal;font-stretch:normal;text-align:center;text-anchor:middle;fill:#ffffff;fill-opacity:1;stroke:none;font-family:Emmentaler;-inkscape-font-specification:Emmentaler"
       inkscape:connector-curvature="0" />
  </g>
  <g
     transform="translate(2.514116,-2.465989)"
     id="g3112"
     style="fill:#ffffff">
    <title
       id="title3114">Layer 1</title>
    <g
       style="fill:#ffffff"
       id="g123">
      <use
         xlink:href="#glyph0-0"
         height="841.88977"
         width="595.27557"
         y="-34.850216"
         x="9.2309227"
         id="use125"
         style="fill:#ffffff" />
    </g>
    <path
       style="fill:#ffffff;fill-rule:nonzero"
       inkscape:connector-curvature="0"
       id="path1185"
       d="m -2.514116,26.039001 c 15.991329,-31.4306827 54.072774,-31.4306827 70.064096,0 -15.991322,-25.23707545 -54.072767,-25.23707545 -70.064096,0" />
  </g>
</svg>
